<svg width="60" height="60" viewBox="0 0 60 60" fill="none" xmlns="http://www.w3.org/2000/svg">
<g clip-path="url(#clip0_4_3097)">
<path d="M0 24C0 15.5992 0 11.3988 1.6349 8.19014C3.073 5.36771 5.36771 3.073 8.19014 1.6349C11.3988 0 15.5992 0 24 0H36C44.4008 0 48.6012 0 51.8099 1.6349C54.6323 3.073 56.927 5.36771 58.3651 8.19014C60 11.3988 60 15.5992 60 24V36C60 44.4008 60 48.6012 58.3651 51.8099C56.927 54.6323 54.6323 56.927 51.8099 58.3651C48.6012 60 44.4008 60 36 60H24C15.5992 60 11.3988 60 8.19014 58.3651C5.36771 56.927 3.073 54.6323 1.6349 51.8099C0 48.6012 0 44.4008 0 36V24Z" fill="white"/>
<path d="M0 24C0 15.5992 0 11.3988 1.6349 8.19014C3.073 5.36771 5.36771 3.073 8.19014 1.6349C11.3988 0 15.5992 0 24 0H36C44.4008 0 48.6012 0 51.8099 1.6349C54.6323 3.073 56.927 5.36771 58.3651 8.19014C60 11.3988 60 15.5992 60 24V36C60 44.4008 60 48.6012 58.3651 51.8099C56.927 54.6323 54.6323 56.927 51.8099 58.3651C48.6012 60 44.4008 60 36 60H24C15.5992 60 11.3988 60 8.19014 58.3651C5.36771 56.927 3.073 54.6323 1.6349 51.8099C0 48.6012 0 44.4008 0 36V24Z" fill="url(#paint0_linear_4_3097)"/>
<path fill-rule="evenodd" clip-rule="evenodd" d="M29.9998 3.82282C15.5426 3.82282 3.82263 15.5427 3.82263 30C3.82263 44.4573 15.5426 56.1772 29.9998 56.1772C44.4571 56.1772 56.177 44.4573 56.177 30C56.177 15.5427 44.4571 3.82282 29.9998 3.82282ZM3.677 30C3.677 15.4623 15.4621 3.67719 29.9998 3.67719C44.5375 3.67719 56.3226 15.4623 56.3226 30C56.3226 44.5377 44.5375 56.3228 29.9998 56.3228C15.4621 56.3228 3.677 44.5377 3.677 30Z" fill="#D0D5DD"/>
<path fill-rule="evenodd" clip-rule="evenodd" d="M30 22.6461C25.9383 22.6461 22.6456 25.9387 22.6456 30.0004C22.6456 34.0621 25.9383 37.3548 30 37.3548C34.0617 37.3548 37.3544 34.0621 37.3544 30.0004C37.3544 25.9387 34.0617 22.6461 30 22.6461ZM22.5 30.0004C22.5 25.8583 25.8579 22.5004 30 22.5004C34.1421 22.5004 37.5 25.8583 37.5 30.0004C37.5 34.1426 34.1421 37.5004 30 37.5004C25.8579 37.5004 22.5 34.1426 22.5 30.0004Z" fill="#D0D5DD"/>
<path fill-rule="evenodd" clip-rule="evenodd" d="M30 24.9752C27.2252 24.9752 24.9757 27.2246 24.9757 29.9994C24.9757 32.7743 27.2252 35.0237 30 35.0237C32.7748 35.0237 35.0243 32.7743 35.0243 29.9994C35.0243 27.2246 32.7748 24.9752 30 24.9752ZM24.8301 29.9994C24.8301 27.1442 27.1447 24.8295 30 24.8295C32.8552 24.8295 35.1699 27.1442 35.1699 29.9994C35.1699 32.8547 32.8552 35.1693 30 35.1693C27.1447 35.1693 24.8301 32.8547 24.8301 29.9994Z" fill="#D0D5DD"/>
<path d="M29.927 0H30.0726V60H29.927V0Z" fill="#D0D5DD"/>
<path d="M60 29.9268L60 30.0724L-6.36574e-09 30.0724L0 29.9268L60 29.9268Z" fill="#D0D5DD"/>
<path d="M49.8784 0H50.024V60H49.8784V0Z" fill="#D0D5DD"/>
<path d="M19.9514 0H20.097V60H19.9514V0Z" fill="#D0D5DD"/>
<path d="M39.9028 0H40.0485V60H39.9028V0Z" fill="#D0D5DD"/>
<path d="M9.97559 0H10.1212V60H9.97559V0Z" fill="#D0D5DD"/>
<path d="M60 49.8779L60 50.0236L-6.36574e-09 50.0236L0 49.8779L60 49.8779Z" fill="#D0D5DD"/>
<path d="M60 19.9512L60 20.0968L-6.36574e-09 20.0968L0 19.9512L60 19.9512Z" fill="#D0D5DD"/>
<path d="M60 39.9023L60 40.048L-6.36574e-09 40.048L0 39.9023L60 39.9023Z" fill="#D0D5DD"/>
<path d="M60 9.97559L60 10.1212L-6.36574e-09 10.1212L0 9.97558L60 9.97559Z" fill="#D0D5DD"/>
<path d="M40.1751 27.8997L39.8804 28.4164C39.6021 28.4164 39.3565 28.283 39.1929 28.0664L39.5858 27.383L39.6021 27.3664L39.9295 27.5497L40.257 27.733L40.1751 27.8997Z" fill="#1F2328"/>
<path d="M45.5934 33.85H41.206L39.0123 37.7167H34.6249L32.4147 41.5833H27.5852L25.3916 37.7167H21.0041L18.8104 33.85H14.4065L12 29.5833L14.4065 25.3333H18.794L21.0041 21.45H25.3916L27.5852 17.5833H32.4147L34.6085 21.45H38.996L40.1092 23.4167L40.9114 24.85L41.1896 25.3333H45.5771L48 29.5833L45.5934 33.85ZM28.0273 40.8167H31.9728L33.1514 38.7501L33.8882 37.4334L33.9537 37.3333L34.1501 36.9501H38.5702L40.5348 33.4666L38.5702 29.9833H34.6085L34.2319 30.65L32.6277 33.45L32.4147 33.8334H28.0109L26.03 37.3333L28.0273 40.8167ZM21.4298 22.2333L19.4652 25.7167L19.2196 26.0833L19.2033 26.1H14.8486L12.8677 29.5833L14.8486 33.0667H18.8104L20.7749 29.5833L20.9877 29.2H22.6248C22.7722 28.9167 23.0505 28.7167 23.3943 28.7167C23.869 28.7167 24.262 29.1167 24.262 29.6C24.262 30.0833 23.869 30.4833 23.3943 30.4833C23.0505 30.4833 22.7558 30.2833 22.6248 29.9833H21.4298L19.4652 33.45L21.4461 36.9333H25.4079L27.3889 33.4334L25.3916 29.9667L25.1787 29.5833L25.3916 29.2L27.3724 25.7167L25.3916 22.2333H21.4298ZM45.1678 26.1333L45.1515 26.1H40.7477L40.7312 26.0833L38.5539 22.2333H34.1828L34.1665 22.2167L33.9373 21.85L31.9728 18.35H28.0273L26.0464 21.8333L28.0273 25.3167H31.7599C31.9072 25.0333 32.1856 24.8333 32.5294 24.8333C33.0041 24.8333 33.397 25.2333 33.397 25.7167C33.397 26.2 33.0041 26.6 32.5294 26.6C32.1856 26.6 31.8908 26.4 31.7435 26.1H28.0273L26.0464 29.5833L28.0273 33.05H31.9891L33.9537 29.5667L34.1828 29.1833H38.5702L38.734 28.9L39.1924 28.0833C39.0941 27.95 39.0286 27.7667 39.0286 27.5833C39.0286 27.1 39.4215 26.7 39.8963 26.7C40.3711 26.7 40.7641 27.1 40.7641 27.5833C40.7641 28.0667 40.3711 28.45 39.8963 28.45C39.8799 28.45 39.8799 28.45 39.8636 28.45L39.8145 28.5333L39.3561 29.3167L39.2088 29.5667L41.1896 33.05H45.1515L47.116 29.5667L45.1678 26.1333Z" fill="#1F2328" stroke="#220000" stroke-width="0.5625"/>
</g>
<path d="M24 0.1875H36C40.2035 0.1875 43.345 0.188007 45.8369 0.391602C48.3264 0.595016 50.1512 1.00011 51.7246 1.80176C54.5118 3.22188 56.7781 5.48824 58.1982 8.27539C58.9999 9.8488 59.405 11.6736 59.6084 14.1631C59.812 16.655 59.8125 19.7965 59.8125 24V36C59.8125 40.2035 59.812 43.345 59.6084 45.8369C59.405 48.3264 58.9999 50.1512 58.1982 51.7246C56.7781 54.5118 54.5118 56.7781 51.7246 58.1982C50.1512 58.9999 48.3264 59.405 45.8369 59.6084C43.345 59.812 40.2035 59.8125 36 59.8125H24C19.7965 59.8125 16.655 59.812 14.1631 59.6084C11.6736 59.405 9.8488 58.9999 8.27539 58.1982C5.48824 56.7781 3.22188 54.5118 1.80176 51.7246C1.00011 50.1512 0.595016 48.3264 0.391602 45.8369C0.188007 43.345 0.1875 40.2035 0.1875 36V24C0.1875 19.7965 0.188007 16.655 0.391602 14.1631C0.595016 11.6736 1.00011 9.8488 1.80176 8.27539C3.22188 5.48824 5.48824 3.22188 8.27539 1.80176C9.8488 1.00011 11.6736 0.595016 14.1631 0.391602C16.655 0.188007 19.7965 0.1875 24 0.1875Z" stroke="#D0D5DD" stroke-width="0.375"/>
<defs>
<linearGradient id="paint0_linear_4_3097" x1="30" y1="0" x2="30" y2="60" gradientUnits="userSpaceOnUse">
<stop stop-color="white"/>
<stop offset="1" stop-color="#D0D5DD"/>
</linearGradient>
<clipPath id="clip0_4_3097">
<path d="M0 24C0 15.5992 0 11.3988 1.6349 8.19014C3.073 5.36771 5.36771 3.073 8.19014 1.6349C11.3988 0 15.5992 0 24 0H36C44.4008 0 48.6012 0 51.8099 1.6349C54.6323 3.073 56.927 5.36771 58.3651 8.19014C60 11.3988 60 15.5992 60 24V36C60 44.4008 60 48.6012 58.3651 51.8099C56.927 54.6323 54.6323 56.927 51.8099 58.3651C48.6012 60 44.4008 60 36 60H24C15.5992 60 11.3988 60 8.19014 58.3651C5.36771 56.927 3.073 54.6323 1.6349 51.8099C0 48.6012 0 44.4008 0 36V24Z" fill="white"/>
</clipPath>
</defs>
</svg>
