<svg width="32" height="32" viewBox="0 0 32 32" fill="none" xmlns="http://www.w3.org/2000/svg">
<path d="M25.0445 14.5002L24.7825 14.9595C24.5352 14.9595 24.3168 14.8409 24.1714 14.6484L24.5206 14.0409L24.5352 14.0261L24.8262 14.1891L25.1172 14.3521L25.0445 14.5002Z" fill="#1F2328"/>
<path d="M29.8608 19.7893H25.9609L24.0109 23.2264H20.111L18.1464 26.6634H13.8535L11.9036 23.2264H8.00365L6.05367 19.7893H2.13915L0 15.9967L2.13915 12.219H6.03911L8.00365 8.76712H11.9036L13.8535 5.33008H18.1464L20.0965 8.76712H23.9964L24.986 10.5153L25.699 11.7893L25.9463 12.219H29.8463L32 15.9967L29.8608 19.7893ZM14.2465 25.982H17.7536L18.8012 24.145L19.4562 22.9746L19.5144 22.8856L19.689 22.545H23.618L25.3643 19.4486L23.618 16.3523H20.0965L19.7617 16.9449L18.3357 19.4338L18.1464 19.7746H14.2319L12.4711 22.8856L14.2465 25.982ZM8.382 9.46342L6.63575 12.5597L6.41746 12.8856L6.40292 12.9004H2.53206L0.771261 15.9967L2.53206 19.093H6.05367L7.79992 15.9967L7.9891 15.656H9.44431C9.57527 15.4042 9.82265 15.2264 10.1283 15.2264C10.5503 15.2264 10.8995 15.5819 10.8995 16.0116C10.8995 16.4412 10.5503 16.7967 10.1283 16.7967C9.82265 16.7967 9.56073 16.619 9.44431 16.3523H8.382L6.63575 19.4338L8.39656 22.53H11.9182L13.679 19.419L11.9036 16.3375L11.7144 15.9967L11.9036 15.656L13.6644 12.5597L11.9036 9.46342H8.382ZM29.4825 12.9301L29.468 12.9004H25.5535L25.5389 12.8856L23.6035 9.46342H19.718L19.7035 9.4486L19.4999 9.12267L17.7536 6.01156H14.2465L12.4857 9.10786L14.2465 12.2042H17.5643C17.6953 11.9523 17.9428 11.7745 18.2483 11.7745C18.6703 11.7745 19.0195 12.1301 19.0195 12.5597C19.0195 12.9893 18.6703 13.3449 18.2483 13.3449C17.9428 13.3449 17.6807 13.1671 17.5498 12.9004H14.2465L12.4857 15.9967L14.2465 19.0782H17.7681L19.5144 15.9819L19.718 15.6412H23.618L23.7636 15.3893L24.171 14.6634C24.0837 14.5449 24.0255 14.3819 24.0255 14.219C24.0255 13.7893 24.3747 13.4338 24.7967 13.4338C25.2188 13.4338 25.568 13.7893 25.568 14.219C25.568 14.6486 25.2188 14.9893 24.7967 14.9893C24.7822 14.9893 24.7822 14.9893 24.7676 14.9893L24.724 15.0634L24.3165 15.7597L24.1856 15.9819L25.9463 19.0782H29.468L31.2143 15.9819L29.4825 12.9301Z" fill="#1F2328"/>
</svg>
