<svg xmlns="http://www.w3.org/2000/svg" width="24" height="24" viewBox="0 0 24 24" fill="none">
  <path d="M19.5 7C20.2021 10.2964 20.2021 13.7036 19.5 17" stroke="#0969DA" stroke-width="1.75" stroke-linecap="round" stroke-linejoin="round"/>
  <path d="M4.50024 7C3.7981 10.2964 3.7981 13.7036 4.50024 17" stroke="#0969DA" stroke-width="1.75" stroke-linecap="round" stroke-linejoin="round"/>
  <path d="M7 19.5C10.2964 20.2021 13.7036 20.2021 17 19.5" stroke="#0969DA" stroke-width="1.75" stroke-linecap="round" stroke-linejoin="round"/>
  <path d="M7 4.50024C10.2964 3.7981 13.7036 3.7981 17 4.50024" stroke="#0969DA" stroke-width="1.75" stroke-linecap="round" stroke-linejoin="round"/>
  <path d="M21 17H18C17.4477 17 17 17.4477 17 18V21C17 21.5523 17.4477 22 18 22H21C21.5523 22 22 21.5523 22 21V18C22 17.4477 21.5523 17 21 17Z" stroke="#0969DA" stroke-width="1.75" stroke-linecap="round" stroke-linejoin="round"/>
  <path d="M21 2H18C17.4477 2 17 2.44772 17 3V6C17 6.55228 17.4477 7 18 7H21C21.5523 7 22 6.55228 22 6V3C22 2.44772 21.5523 2 21 2Z" stroke="#0969DA" stroke-width="1.75" stroke-linecap="round" stroke-linejoin="round"/>
  <path d="M6 17H3C2.44772 17 2 17.4477 2 18V21C2 21.5523 2.44772 22 3 22H6C6.55228 22 7 21.5523 7 21V18C7 17.4477 6.55228 17 6 17Z" stroke="#0969DA" stroke-width="1.75" stroke-linecap="round" stroke-linejoin="round"/>
  <path d="M6 2H3C2.44772 2 2 2.44772 2 3V6C2 6.55228 2.44772 7 3 7H6C6.55228 7 7 6.55228 7 6V3C7 2.44772 6.55228 2 6 2Z" stroke="#0969DA" stroke-width="1.75" stroke-linecap="round" stroke-linejoin="round"/>
</svg>